<svg width="128" height="128" viewBox="0 0 128 128" fill="none" xmlns="http://www.w3.org/2000/svg">
<rect x="14" y="14" width="100" height="100" rx="18" fill="white"/>
<path fill-rule="evenodd" clip-rule="evenodd" d="M49.7143 28.6429C46.8857 28.6429 44.6686 30.5779 43.2971 32.8986C41.9086 35.2386 41.1429 38.2921 41.1429 41.5C41.1429 44.7079 41.9086 47.7614 43.2971 50.1014C44.6686 52.4157 46.8857 54.3571 49.7143 54.3571C52.5429 54.3571 54.76 52.4221 56.1314 50.1014C57.52 47.7614 58.2857 44.7079 58.2857 41.5C58.2857 38.2921 57.52 35.2386 56.1314 32.8986C54.76 30.5843 52.5429 28.6429 49.7143 28.6429ZM78.2857 28.6429C75.4571 28.6429 73.24 30.5779 71.8686 32.8986C70.48 35.2386 69.7143 38.2921 69.7143 41.5C69.7143 44.7079 70.48 47.7614 71.8686 50.1014C73.24 52.4157 75.4571 54.3571 78.2857 54.3571C81.1143 54.3571 83.3314 52.4221 84.7029 50.1014C86.0914 47.7614 86.8571 44.7079 86.8571 41.5C86.8571 38.2921 86.0914 35.2386 84.7029 32.8986C83.3314 30.5843 81.1143 28.6429 78.2857 28.6429ZM32.5714 57.5714C29.7429 57.5714 27.5257 59.5064 26.1543 61.8271C24.7657 64.1671 24 67.2207 24 70.4286C24 73.6364 24.7657 76.69 26.1543 79.03C27.5257 81.3443 29.7429 83.2857 32.5714 83.2857C35.4 83.2857 37.6171 81.3507 38.9886 79.03C40.3771 76.69 41.1429 73.6364 41.1429 70.4286C41.1429 67.2207 40.3771 64.1671 38.9886 61.8271C37.6171 59.5129 35.4 57.5714 32.5714 57.5714ZM64 57.5714C57.1429 57.5714 52.0629 61.7114 48.8171 66.8479C45.6114 71.9071 44 78.1879 44 83.2857C44 89.2257 47.1714 93.3528 51.0629 95.8343C54.8914 98.2771 59.6914 99.3571 64 99.3571C68.3086 99.3571 73.1086 98.2836 76.9371 95.8343C80.8229 93.3528 84 89.2257 84 83.2857C84 78.1879 82.3886 71.9071 79.1829 66.8479C75.9429 61.705 70.8629 57.5714 64 57.5714ZM95.4286 57.5714C92.6 57.5714 90.3829 59.5064 89.0114 61.8271C87.6229 64.1671 86.8571 67.2207 86.8571 70.4286C86.8571 73.6364 87.6229 76.69 89.0114 79.03C90.3829 81.3443 92.6 83.2857 95.4286 83.2857C98.2571 83.2857 100.474 81.3507 101.846 79.03C103.234 76.69 104 73.6364 104 70.4286C104 67.2207 103.234 64.1671 101.846 61.8271C100.474 59.5129 98.2571 57.5714 95.4286 57.5714Z" fill="#007CF2"/>
</svg>
